<?xml version="1.0" standalone="no"?>
<!DOCTYPE svg PUBLIC "-//W3C//DTD SVG 20010904//EN"
 "http://www.w3.org/TR/2001/REC-SVG-20010904/DTD/svg10.dtd">
<svg version="1.0" xmlns="http://www.w3.org/2000/svg"
 width="700.000000pt" height="700.000000pt" viewBox="0 0 700.000000 700.000000"
 preserveAspectRatio="xMidYMid meet">
<metadata>
Created by potrace 1.11, written by Peter Selinger 2001-2013
</metadata>
<g transform="translate(0.000000,700.000000) scale(0.100000,-0.100000)"
fill="#000000" stroke="none">
<path d="M3498 5475 c-2 -2 -42 -5 -90 -6 -103 -2 -280 -28 -398 -59 -503
-129 -936 -453 -1204 -899 -31 -52 -56 -95 -56 -97 0 -2 -20 -45 -44 -96 -38
-81 -98 -244 -111 -303 -2 -11 -11 -47 -19 -81 -8 -33 -18 -83 -21 -110 -3
-27 -9 -62 -12 -79 -20 -102 -19 -402 2 -515 1 -8 6 -35 10 -60 4 -25 14 -72
22 -105 8 -33 17 -71 19 -83 6 -29 65 -202 89 -257 24 -57 78 -164 103 -205
12 -19 29 -48 38 -65 37 -68 189 -258 278 -347 102 -102 248 -218 356 -284 36
-21 75 -45 85 -52 11 -6 29 -16 40 -21 11 -5 52 -24 91 -43 68 -34 259 -103
306 -112 13 -2 50 -11 83 -19 79 -20 151 -32 260 -43 52 -5 323 -5 355 0 14 2
48 7 75 11 98 13 121 17 215 40 139 33 254 75 420 153 72 34 218 127 311 198
410 315 693 804 754 1304 4 30 9 69 11 85 6 48 6 295 -1 350 -15 137 -24 191
-50 297 -33 136 -58 209 -119 341 -20 43 -36 80 -36 82 0 3 -18 34 -40 70 -22
36 -40 68 -40 70 0 8 -68 104 -135 190 -336 430 -855 704 -1400 740 -49 4
-102 8 -117 10 -15 2 -28 1 -30 0z m1336 -2007 c-1 -18 -5 -66 -8 -107 -19
-224 -113 -465 -255 -656 -25 -33 -50 -65 -56 -71 -5 -6 -24 -26 -41 -45 -163
-179 -397 -318 -637 -380 -79 -20 -100 -24 -217 -37 -308 -36 -668 68 -929
268 -67 51 -195 176 -242 236 -150 193 -258 461 -275 685 -3 41 -7 89 -8 107
l-4 32 1338 0 1337 0 -3 -32z"/>
</g>
</svg>
